# xmcd
#
# Track frame offsets: 
#        150
#        11755
#        28017
#        40412
#        70816
#        86485
#        99215
#        113639
#        119268
#        134953
#        151462
#        161963
#        172190
#        185625
#        199509
#        213736
#
# Disc length: 3225 seconds
#
# Revision: 0
# Processed by: cddbd v1.5.2PL0 Copyright (c) Steve Scherf et al.
# Submitted via: ExactAudioCopy v0.95b4
#
DISCID=e90c9710
DTITLE=Shanty Chor Pellworm - Grüße von der Waterkant
DYEAR=1998
DGENRE=Deutsch Volksmusik
TTITLE0=Shanty Chor Pellworm/Grüße von der Waterkant
TTITLE1=Shanty Chor Pellworm/Nimm mich mit, Kapitän auf die Reise
TTITLE2=Shanty Chor Pellworm/Nun lasst um die Masten
TTITLE3=Shanty Chor Pellworm/Jan Hinnerk wahnt op de Lammerstrat
TTITLE4=Shanty Chor Pellworm/Roll the Cotton down
TTITLE5=Shanty Chor Pellworm/In Hamburg liegt ein Segelschiff im Hafen
TTITLE6=Shanty Chor Pellworm/Snuten un Poten
TTITLE7=Shanty Chor Pellworm/Siebzehn Mann auf des toten Mannes Kiste
TTITLE8=Shanty Chor Pellworm/Der Bootsmann
TTITLE9=Shanty Chor Pellworm/Bound to the Rio Grande
TTITLE10=Shanty Chor Pellworm/Sie hieß ''Mary Ann''
TTITLE11=Shanty Chor Pellworm/A little drink in the morning time
TTITLE12=Shanty Chor Pellworm/Liebe kleine Deern am Deich
TTITLE13=Shanty Chor Pellworm/Mingulay Boat Song
TTITLE14=Shanty Chor Pellworm/Shanty men sind very good
TTITLE15=Shanty Chor Pellworm/Seemannslieder Potpourri
EXTD=
EXTT0=
EXTT1=
EXTT2=
EXTT3=
EXTT4=
EXTT5=
EXTT6=
EXTT7=
EXTT8=
EXTT9=
EXTT10=
EXTT11=
EXTT12=
EXTT13=
EXTT14=
EXTT15=
PLAYORDER=
